{
  "accessors": [
    {
      "bufferView": 2,
      "componentType": 5126,
      "count": 6554,
      "max": [
        0.3058183193206787,
        0.17773418128490448,
        0.13270385563373566
      ],
      "min": [
        -0.12486158311367035,
        -0.19382916390895844,
        -0.12261965125799179
      ],
      "type": "VEC3"
    },
    {
      "bufferView": 2,
      "byteOffset": 78648,
      "componentType": 5126,
      "count": 6554,
      "max": [
        1.0,
        1.0,
        1.0
      ],
      "min": [
        -1.0,
        -1.0,
        -1.0
      ],
      "type": "VEC3"
    },
    {
      "bufferView": 1,
      "componentType": 5126,
      "count": 6554,
      "max": [
        0.9951609969139099,
        0.9968010187149048
      ],
      "min": [
        0.003318999893963337,
        0.006000999826937914
      ],
      "type": "VEC2"
    },
    {
      "bufferView": 0,
      "componentType": 5125,
      "count": 35310,
      "type": "SCALAR"
    },
    {
      "bufferView": 2,
      "byteOffset": 157296,
      "componentType": 5126,
      "count": 6554,
      "max": [
        0.30824655294418335,
        0.18017834424972534,
        0.13514763116836548
      ],
      "min": [
        -0.12728434801101685,
        -0.1962081789970398,
        -0.12507866322994232
      ],
      "type": "VEC3"
    },
    {
      "bufferView": 2,
      "byteOffset": 235944,
      "componentType": 5126,
      "count": 6554,
      "max": [
        1.0,
        1.0,
        1.0
      ],
      "min": [
        -0.9999999403953552,
        -0.9999999403953552,
        -1.0
      ],
      "type": "VEC3"
    },
    {
      "bufferView": 1,
      "byteOffset": 52432,
      "componentType": 5126,
      "count": 6554,
      "max": [
        0.9951609969139099,
        0.9968010187149048
      ],
      "min": [
        0.003318999893963337,
        0.006000999826937914
      ],
      "type": "VEC2"
    },
    {
      "bufferView": 0,
      "byteOffset": 141240,
      "componentType": 5125,
      "count": 35310,
      "type": "SCALAR"
    }
  ],
  "asset": {
    "extras": {
      "author": "Tasha.Lime (https://sketchfab.com/tasha.lime)",
      "license": "CC-BY-4.0 (http://creativecommons.org/licenses/by/4.0/)",
      "source": "https://sketchfab.com/3d-models/goldfish-e913c3d127e04b919bb9e9b416f47da8",
      "title": "GoldFish"
    },
    "generator": "Sketchfab-12.65.0",
    "version": "2.0"
  },
  "bufferViews": [
    {
      "buffer": 0,
      "byteLength": 282480,
      "name": "floatBufferViews",
      "target": 34963
    },
    {
      "buffer": 0,
      "byteLength": 104864,
      "byteOffset": 282480,
      "byteStride": 8,
      "name": "floatBufferViews",
      "target": 34962
    },
    {
      "buffer": 0,
      "byteLength": 314592,
      "byteOffset": 387344,
      "byteStride": 12,
      "name": "floatBufferViews",
      "target": 34962
    }
  ],
  "buffers": [
    {
      "byteLength": 701936,
      "uri": "scene.bin"
    }
  ],
  "extensionsUsed": [
    "KHR_materials_unlit"
  ],
  "images": [
    {
      "uri": "textures/Material.002_baseColor.png"
    }
  ],
  "materials": [
    {
      "doubleSided": true,
      "extensions": {
        "KHR_materials_unlit": {}
      },
      "name": "Material.002",
      "pbrMetallicRoughness": {
        "baseColorTexture": {
          "index": 0
        },
        "metallicFactor": 0.0
      }
    },
    {
      "extensions": {
        "KHR_materials_unlit": {}
      },
      "name": "Material.004",
      "pbrMetallicRoughness": {
        "metallicFactor": 0.0
      }
    }
  ],
  "meshes": [
    {
      "name": "Object_0",
      "primitives": [
        {
          "attributes": {
            "NORMAL": 1,
            "POSITION": 0,
            "TEXCOORD_0": 2
          },
          "indices": 3,
          "material": 0,
          "mode": 4
        }
      ]
    },
    {
      "name": "Object_1",
      "primitives": [
        {
          "attributes": {
            "NORMAL": 5,
            "POSITION": 4,
            "TEXCOORD_0": 6
          },
          "indices": 7,
          "material": 1,
          "mode": 4
        }
      ]
    }
  ],
  "nodes": [
    {
      "children": [
        1
      ],
      "matrix": [
        1.0,
        0.0,
        0.0,
        0.0,
        0.0,
        2.220446049250313e-16,
        -1.0,
        0.0,
        0.0,
        1.0,
        2.220446049250313e-16,
        0.0,
        0.0,
        0.0,
        0.0,
        1.0
      ],
      "name": "Sketchfab_model"
    },
    {
      "children": [
        2
      ],
      "name": "root"
    },
    {
      "children": [
        3,
        5
      ],
      "matrix": [
        1.0,
        0.0,
        0.0,
        0.0,
        0.0,
        2.220446049250313e-16,
        1.0,
        0.0,
        0.0,
        -1.0,
        2.220446049250313e-16,
        0.0,
        0.0,
        0.0,
        0.0,
        1.0
      ],
      "name": "GLTF_SceneRootNode"
    },
    {
      "children": [
        4
      ],
      "name": "GoldFish_0"
    },
    {
      "mesh": 0,
      "name": "Object_4"
    },
    {
      "children": [
        6
      ],
      "name": "GoldFish.001_1"
    },
    {
      "mesh": 1,
      "name": "Object_6"
    }
  ],
  "samplers": [
    {
      "magFilter": 9729,
      "minFilter": 9987,
      "wrapS": 10497,
      "wrapT": 10497
    }
  ],
  "scene": 0,
  "scenes": [
    {
      "name": "Sketchfab_Scene",
      "nodes": [
        0
      ]
    }
  ],
  "textures": [
    {
      "sampler": 0,
      "source": 0
    }
  ]
}
