{
  "accessors": [
    {
      "bufferView": 2,
      "componentType": 5126,
      "count": 886,
      "max": [
        597.8841552734375,
        597.9542846679688,
        779.1234130859375
      ],
      "min": [
        -597.8841552734375,
        -597.9541625976563,
        171.2719268798828
      ],
      "type": "VEC3"
    },
    {
      "bufferView": 2,
      "byteOffset": 10632,
      "componentType": 5126,
      "count": 886,
      "max": [
        0.9999620914459229,
        0.9999620914459229,
        1.0
      ],
      "min": [
        -0.9999620914459229,
        -0.9999620914459229,
        -0.8983928561210632
      ],
      "type": "VEC3"
    },
    {
      "bufferView": 3,
      "componentType": 5126,
      "count": 886,
      "max": [
        0.982934832572937,
        0.9999963641166687,
        0.9927362203598022,
        1.0
      ],
      "min": [
        -0.9994011521339417,
        -0.9999780654907227,
        -0.9927368760108948,
        1.0
      ],
      "type": "VEC4"
    },
    {
      "bufferView": 1,
      "componentType": 5126,
      "count": 886,
      "max": [
        0.9753599762916565,
        0.9807549715042114
      ],
      "min": [
        0.025391999632120132,
        0.10923700034618378
      ],
      "type": "VEC2"
    },
    {
      "bufferView": 0,
      "componentType": 5125,
      "count": 3564,
      "type": "SCALAR"
    },
    {
      "bufferView": 2,
      "byteOffset": 21264,
      "componentType": 5126,
      "count": 51,
      "max": [
        17.440095901489258,
        -6.880743980407715,
        1038.6083984375
      ],
      "min": [
        2.624943971633911,
        -21.695858001708984,
        434.8733215332031
      ],
      "type": "VEC3"
    },
    {
      "bufferView": 2,
      "byteOffset": 21876,
      "componentType": 5126,
      "count": 51,
      "max": [
        1.0,
        1.0,
        -0.0
      ],
      "min": [
        -1.0,
        -1.0,
        -0.0
      ],
      "type": "VEC3"
    },
    {
      "bufferView": 3,
      "byteOffset": 14176,
      "componentType": 5126,
      "count": 51,
      "max": [
        1.0,
        1.0,
        1.436957157494379e-20,
        1.0
      ],
      "min": [
        -1.0,
        -1.0,
        -7.696128159295768e-05,
        1.0
      ],
      "type": "VEC4"
    },
    {
      "bufferView": 1,
      "byteOffset": 7088,
      "componentType": 5126,
      "count": 51,
      "max": [
        0.3482849895954132,
        0.9807680249214172
      ],
      "min": [
        0.2765609920024872,
        0.04307299852371216
      ],
      "type": "VEC2"
    },
    {
      "bufferView": 0,
      "byteOffset": 14256,
      "componentType": 5125,
      "count": 192,
      "type": "SCALAR"
    },
    {
      "bufferView": 2,
      "byteOffset": 22488,
      "componentType": 5126,
      "count": 633,
      "max": [
        1150.592529296875,
        1150.66064453125,
        167.08151245117188
      ],
      "min": [
        -1150.592529296875,
        -1150.660888671875,
        135.4504852294922
      ],
      "type": "VEC3"
    },
    {
      "bufferView": 2,
      "byteOffset": 30084,
      "componentType": 5126,
      "count": 633,
      "max": [
        0.9997913837432861,
        0.9997912645339966,
        1.0
      ],
      "min": [
        -0.9997913837432861,
        -0.999791145324707,
        0.020427005365490913
      ],
      "type": "VEC3"
    },
    {
      "bufferView": 3,
      "byteOffset": 14992,
      "componentType": 5126,
      "count": 633,
      "max": [
        0.8218544721603394,
        0.9997857213020325,
        0.9997830986976624,
        1.0
      ],
      "min": [
        -0.7973260879516602,
        0.01918439194560051,
        -0.9997912049293518,
        1.0
      ],
      "type": "VEC4"
    },
    {
      "bufferView": 1,
      "byteOffset": 7496,
      "componentType": 5126,
      "count": 633,
      "max": [
        0.9802179932594299,
        0.978950023651123
      ],
      "min": [
        0.04540200158953667,
        0.020764999091625214
      ],
      "type": "VEC2"
    },
    {
      "bufferView": 0,
      "byteOffset": 15024,
      "componentType": 5125,
      "count": 3024,
      "type": "SCALAR"
    },
    {
      "bufferView": 2,
      "byteOffset": 37680,
      "componentType": 5126,
      "count": 474,
      "max": [
        569.1212768554688,
        694.7484130859375,
        1909.5447998046875
      ],
      "min": [
        -539.0201416015625,
        -661.6715087890625,
        1372.6322021484375
      ],
      "type": "VEC3"
    },
    {
      "bufferView": 2,
      "byteOffset": 43368,
      "componentType": 5126,
      "count": 474,
      "max": [
        1.0,
        0.7659386992454529,
        0.8392134308815002
      ],
      "min": [
        -1.0,
        -0.7660449743270874,
        -0.9737434983253479
      ],
      "type": "VEC3"
    },
    {
      "bufferView": 3,
      "byteOffset": 25120,
      "componentType": 5126,
      "count": 474,
      "max": [
        0.28308552503585815,
        0.9736793041229248,
        0.7988224625587463,
        1.0
      ],
      "min": [
        -0.24636374413967133,
        -0.9737423658370972,
        -0.8103746175765991,
        1.0
      ],
      "type": "VEC4"
    },
    {
      "bufferView": 1,
      "byteOffset": 12560,
      "componentType": 5126,
      "count": 474,
      "max": [
        0.9235659837722778,
        0.9851940274238586
      ],
      "min": [
        0.030750000849366188,
        0.007542999926954508
      ],
      "type": "VEC2"
    },
    {
      "bufferView": 0,
      "byteOffset": 27120,
      "componentType": 5125,
      "count": 1068,
      "type": "SCALAR"
    },
    {
      "bufferView": 2,
      "byteOffset": 49056,
      "componentType": 5126,
      "count": 2052,
      "max": [
        852.6819458007813,
        507.192138671875,
        1851.0693359375
      ],
      "min": [
        -543.992919921875,
        -495.4679870605469,
        676.7169189453125
      ],
      "type": "VEC3"
    },
    {
      "bufferView": 2,
      "byteOffset": 73680,
      "componentType": 5126,
      "count": 2052,
      "max": [
        1.0,
        1.0,
        0.9993289709091187
      ],
      "min": [
        -1.0,
        -1.0,
        -0.9993295669555664
      ],
      "type": "VEC3"
    },
    {
      "bufferView": 3,
      "byteOffset": 32704,
      "componentType": 5126,
      "count": 2052,
      "max": [
        1.0,
        1.0,
        0.9998959898948669,
        1.0
      ],
      "min": [
        -1.0,
        -1.0,
        -0.9998640418052673,
        1.0
      ],
      "type": "VEC4"
    },
    {
      "bufferView": 1,
      "byteOffset": 16352,
      "componentType": 5126,
      "count": 2052,
      "max": [
        0.9858019948005676,
        0.9882109761238098
      ],
      "min": [
        0.008259999565780163,
        0.0048340000212192535
      ],
      "type": "VEC2"
    },
    {
      "bufferView": 0,
      "byteOffset": 31392,
      "componentType": 5125,
      "count": 8856,
      "type": "SCALAR"
    }
  ],
  "asset": {
    "extras": {
      "author": "amaykumar (https://sketchfab.com/amaykumar)",
      "license": "CC-BY-4.0 (http://creativecommons.org/licenses/by/4.0/)",
      "source": "https://sketchfab.com/3d-models/ancient-well-78dc548537fd4209acc7d200fbd90eef",
      "title": "Ancient_well"
    },
    "generator": "Sketchfab-12.68.0",
    "version": "2.0"
  },
  "bufferViews": [
    {
      "buffer": 0,
      "byteLength": 66816,
      "name": "floatBufferViews",
      "target": 34963
    },
    {
      "buffer": 0,
      "byteLength": 32768,
      "byteOffset": 66816,
      "byteStride": 8,
      "name": "floatBufferViews",
      "target": 34962
    },
    {
      "buffer": 0,
      "byteLength": 98304,
      "byteOffset": 99584,
      "byteStride": 12,
      "name": "floatBufferViews",
      "target": 34962
    },
    {
      "buffer": 0,
      "byteLength": 65536,
      "byteOffset": 197888,
      "byteStride": 16,
      "name": "floatBufferViews",
      "target": 34962
    }
  ],
  "buffers": [
    {
      "byteLength": 263424,
      "uri": "scene.bin"
    }
  ],
  "extensionsRequired": [
    "KHR_materials_pbrSpecularGlossiness"
  ],
  "extensionsUsed": [
    "KHR_materials_pbrSpecularGlossiness"
  ],
  "images": [
    {
      "uri": "textures/phong1SG_diffuse.png"
    },
    {
      "uri": "textures/phong1SG_specularGlossiness.png"
    },
    {
      "uri": "textures/phong1SG_normal.png"
    },
    {
      "uri": "textures/phong3SG_diffuse.png"
    },
    {
      "uri": "textures/phong3SG_specularGlossiness.png"
    },
    {
      "uri": "textures/phong3SG_normal.png"
    },
    {
      "uri": "textures/phong4SG_diffuse.png"
    },
    {
      "uri": "textures/phong4SG_specularGlossiness.png"
    },
    {
      "uri": "textures/phong4SG_normal.png"
    },
    {
      "uri": "textures/phong5SG_diffuse.png"
    },
    {
      "uri": "textures/phong5SG_specularGlossiness.png"
    },
    {
      "uri": "textures/phong5SG_normal.png"
    }
  ],
  "materials": [
    {
      "doubleSided": true,
      "extensions": {
        "KHR_materials_pbrSpecularGlossiness": {
          "diffuseFactor": [
            1.0,
            1.0,
            1.0,
            1.0
          ],
          "diffuseTexture": {
            "index": 0
          },
          "glossinessFactor": 1.0,
          "specularFactor": [
            0.14763420462214766,
            0.14763420462214766,
            0.14763420462214766
          ],
          "specularGlossinessTexture": {
            "index": 1
          }
        }
      },
      "name": "phong1SG",
      "normalTexture": {
        "index": 2
      }
    },
    {
      "doubleSided": true,
      "extensions": {
        "KHR_materials_pbrSpecularGlossiness": {
          "diffuseFactor": [
            1.0,
            1.0,
            1.0,
            1.0
          ],
          "diffuseTexture": {
            "index": 0
          },
          "glossinessFactor": 1.0,
          "specularFactor": [
            0.1,
            0.1,
            0.1
          ],
          "specularGlossinessTexture": {
            "index": 1
          }
        }
      },
      "name": "phong2SG",
      "normalTexture": {
        "index": 2,
        "scale": 0.8
      }
    },
    {
      "doubleSided": true,
      "extensions": {
        "KHR_materials_pbrSpecularGlossiness": {
          "diffuseFactor": [
            1.0,
            1.0,
            1.0,
            1.0
          ],
          "diffuseTexture": {
            "index": 3
          },
          "glossinessFactor": 1.0,
          "specularFactor": [
            0.1,
            0.1,
            0.1
          ],
          "specularGlossinessTexture": {
            "index": 4
          }
        }
      },
      "name": "phong3SG",
      "normalTexture": {
        "index": 5
      }
    },
    {
      "doubleSided": true,
      "extensions": {
        "KHR_materials_pbrSpecularGlossiness": {
          "diffuseFactor": [
            1.0,
            1.0,
            1.0,
            1.0
          ],
          "diffuseTexture": {
            "index": 6
          },
          "glossinessFactor": 1.0,
          "specularFactor": [
            0.1,
            0.1,
            0.1
          ],
          "specularGlossinessTexture": {
            "index": 7
          }
        }
      },
      "name": "phong4SG",
      "normalTexture": {
        "index": 8
      }
    },
    {
      "doubleSided": true,
      "extensions": {
        "KHR_materials_pbrSpecularGlossiness": {
          "diffuseFactor": [
            1.0,
            1.0,
            1.0,
            1.0
          ],
          "diffuseTexture": {
            "index": 9
          },
          "glossinessFactor": 1.0,
          "specularFactor": [
            0.1,
            0.1,
            0.1
          ],
          "specularGlossinessTexture": {
            "index": 10
          }
        }
      },
      "name": "phong5SG",
      "normalTexture": {
        "index": 11,
        "scale": 0.9
      }
    }
  ],
  "meshes": [
    {
      "name": "Object_0",
      "primitives": [
        {
          "attributes": {
            "NORMAL": 1,
            "POSITION": 0,
            "TANGENT": 2,
            "TEXCOORD_0": 3
          },
          "indices": 4,
          "material": 1,
          "mode": 4
        }
      ]
    },
    {
      "name": "Object_1",
      "primitives": [
        {
          "attributes": {
            "NORMAL": 6,
            "POSITION": 5,
            "TANGENT": 7,
            "TEXCOORD_0": 8
          },
          "indices": 9,
          "material": 0,
          "mode": 4
        }
      ]
    },
    {
      "name": "Object_2",
      "primitives": [
        {
          "attributes": {
            "NORMAL": 11,
            "POSITION": 10,
            "TANGENT": 12,
            "TEXCOORD_0": 13
          },
          "indices": 14,
          "material": 2,
          "mode": 4
        }
      ]
    },
    {
      "name": "Object_3",
      "primitives": [
        {
          "attributes": {
            "NORMAL": 16,
            "POSITION": 15,
            "TANGENT": 17,
            "TEXCOORD_0": 18
          },
          "indices": 19,
          "material": 3,
          "mode": 4
        }
      ]
    },
    {
      "name": "Object_4",
      "primitives": [
        {
          "attributes": {
            "NORMAL": 21,
            "POSITION": 20,
            "TANGENT": 22,
            "TEXCOORD_0": 23
          },
          "indices": 24,
          "material": 4,
          "mode": 4
        }
      ]
    }
  ],
  "nodes": [
    {
      "children": [
        1
      ],
      "matrix": [
        1.0,
        0.0,
        0.0,
        0.0,
        0.0,
        2.220446049250313e-16,
        -1.0,
        0.0,
        0.0,
        1.0,
        2.220446049250313e-16,
        0.0,
        0.0,
        0.0,
        0.0,
        1.0
      ],
      "name": "Sketchfab_model"
    },
    {
      "children": [
        2,
        3,
        4,
        5,
        6
      ],
      "name": "well.obj.cleaner.materialmerger.gles"
    },
    {
      "mesh": 0,
      "name": "Object_2"
    },
    {
      "mesh": 1,
      "name": "Object_3"
    },
    {
      "mesh": 2,
      "name": "Object_4"
    },
    {
      "mesh": 3,
      "name": "Object_5"
    },
    {
      "mesh": 4,
      "name": "Object_6"
    }
  ],
  "samplers": [
    {
      "magFilter": 9729,
      "minFilter": 9987,
      "wrapS": 10497,
      "wrapT": 10497
    }
  ],
  "scene": 0,
  "scenes": [
    {
      "name": "Sketchfab_Scene",
      "nodes": [
        0
      ]
    }
  ],
  "textures": [
    {
      "sampler": 0,
      "source": 0
    },
    {
      "sampler": 0,
      "source": 1
    },
    {
      "sampler": 0,
      "source": 2
    },
    {
      "sampler": 0,
      "source": 3
    },
    {
      "sampler": 0,
      "source": 4
    },
    {
      "sampler": 0,
      "source": 5
    },
    {
      "sampler": 0,
      "source": 6
    },
    {
      "sampler": 0,
      "source": 7
    },
    {
      "sampler": 0,
      "source": 8
    },
    {
      "sampler": 0,
      "source": 9
    },
    {
      "sampler": 0,
      "source": 10
    },
    {
      "sampler": 0,
      "source": 11
    }
  ]
}
